<svg xmlns="http://www.w3.org/2000/svg" viewBox="0 0 1400 420" role="img" aria-labelledby="title desc">
  <title id="title">Eddie's Basement logo</title>
  <desc id="desc">A neon 90s and 2000s inspired gamer logo for Eddie's Basement.</desc>
  <defs>
    <linearGradient id="blue" x1="0" x2="1" y1="0" y2="1"><stop offset="0" stop-color="#45dcff"/><stop offset=".48" stop-color="#117bff"/><stop offset="1" stop-color="#073b9f"/></linearGradient>
    <linearGradient id="green" x1="0" x2="1" y1="0" y2="1"><stop offset="0" stop-color="#dcff33"/><stop offset=".45" stop-color="#8cff00"/><stop offset="1" stop-color="#279800"/></linearGradient>
    <linearGradient id="orange" x1="0" x2="1"><stop offset="0" stop-color="#ff6a00"/><stop offset=".6" stop-color="#ff9d2e"/><stop offset="1" stop-color="#ffd06b"/></linearGradient>
    <filter id="glow" x="-20%" y="-20%" width="140%" height="140%"><feGaussianBlur stdDeviation="6" result="b"/><feMerge><feMergeNode in="b"/><feMergeNode in="SourceGraphic"/></feMerge></filter>
    <filter id="blueGlow" x="-30%" y="-30%" width="160%" height="160%"><feDropShadow dx="0" dy="0" stdDeviation="7" flood-color="#1ab8ff" flood-opacity=".85"/><feDropShadow dx="0" dy="0" stdDeviation="14" flood-color="#ff7a00" flood-opacity=".36"/></filter>
    <pattern id="scan" width="8" height="8" patternUnits="userSpaceOnUse"><path d="M0 0H8" stroke="rgba(255,255,255,.16)" stroke-width="1"/></pattern>
  </defs>
  <rect width="1400" height="420" fill="#02040a" opacity="0"/>
  <path d="M86 306h250l36 48h642l39-48h250l39-47-35-51 29-67-84-24-70-83-170 15-92-26H479l-96 28-145-18-93 72-87 9-30 70 34 58z" fill="#06080d" stroke="#f0dfb9" stroke-width="10" opacity=".95"/>
  <path d="M100 298h235l34 45h652l33-45h240l28-38-31-48 24-53-75-22-62-74-164 14-95-25H485l-92 27-144-18-82 63-81 9-24 56 31 51z" fill="#0a0d16" stroke="#ff7a00" stroke-width="5" filter="url(#glow)"/>
  <g transform="translate(55 68) rotate(-5)">
    <rect width="195" height="126" rx="18" fill="#10131c" stroke="#ff7a00" stroke-width="6" filter="url(#glow)"/>
    <rect x="22" y="20" width="151" height="78" rx="8" fill="#0c7cff" stroke="#69e6ff" stroke-width="3"/>
    <rect x="22" y="20" width="151" height="78" rx="8" fill="url(#scan)" opacity=".4"/>
    <text x="44" y="51" font-family="monospace" font-size="16" fill="#d9f7ff">1 PLAYER</text>
    <text x="44" y="75" font-family="monospace" font-size="16" fill="#d9f7ff">2 PLAYERS</text>
    <text x="29" y="52" font-family="monospace" font-size="17" fill="#fff">▶</text>
    <rect x="40" y="101" width="116" height="54" rx="6" fill="#ffd15c" transform="rotate(-7 98 128)"/>
    <text x="58" y="124" font-family="Arial Black, Impact, sans-serif" font-size="17" fill="#121212" transform="rotate(-7 98 128)">BEAT</text>
    <text x="58" y="145" font-family="Arial Black, Impact, sans-serif" font-size="17" fill="#121212" transform="rotate(-7 98 128)">HIGH SCORE!</text>
  </g>
  <g transform="translate(68 258)">
    <path d="M0 47c19-41 47-45 94-36 49 9 81-17 119 10 28 20 37 70 8 91-26 18-48-2-68-24-12-13-26-18-42-18s-28 5-41 18c-22 22-48 43-72 20-23-22-12-47 2-61z" fill="#c7c6bd" stroke="#181818" stroke-width="8"/>
    <path d="M45 51h50M70 26v50" stroke="#111" stroke-width="18" stroke-linecap="round"/>
    <circle cx="165" cy="49" r="13" fill="#86ff00"/><circle cx="199" cy="75" r="13" fill="#ff7a00"/>
  </g>
  <g filter="url(#blueGlow)">
    <text x="309" y="162" font-family="Impact, Arial Black, sans-serif" font-size="154" font-style="italic" letter-spacing="-7" fill="#05070d" stroke="#ff7a00" stroke-width="14">EDDIE'S</text>
    <text x="309" y="162" font-family="Impact, Arial Black, sans-serif" font-size="154" font-style="italic" letter-spacing="-7" fill="url(#blue)" stroke="#071022" stroke-width="5">EDDIE'S</text>
    <text x="277" y="282" font-family="Impact, Arial Black, sans-serif" font-size="164" font-style="italic" letter-spacing="-6" fill="#05070d" stroke="#ff7a00" stroke-width="14">BASEMENT</text>
    <text x="277" y="282" font-family="Impact, Arial Black, sans-serif" font-size="164" font-style="italic" letter-spacing="-6" fill="url(#green)" stroke="#071308" stroke-width="5">BASEMENT</text>
  </g>
  <g transform="translate(432 306)">
    <rect width="540" height="70" rx="14" fill="#05070d" stroke="#0e8cff" stroke-width="3"/>
    <rect width="540" height="70" rx="14" fill="none" stroke="#ff7a00" stroke-width="4" filter="url(#glow)"/>
    <text x="118" y="44" font-family="Arial Black, Impact, sans-serif" font-size="25" fill="#ff7a00">GAMES. FRIENDS. HIGH SCORES.</text>
    <path d="M86 25l-22 10 18 5-26 20 41-15-22-5zM474 25l-22 10 18 5-26 20 41-15-22-5z" fill="#ff7a00"/>
    <path d="M46 20v35M29 38h35" stroke="#1898ff" stroke-width="13" stroke-linecap="round"/>
    <circle cx="486" cy="26" r="11" fill="#1898ff"/><circle cx="516" cy="34" r="11" fill="#8cff00"/><circle cx="498" cy="56" r="11" fill="#ffb21e"/><circle cx="530" cy="58" r="11" fill="#ff312e"/>
  </g>
  <g transform="translate(1160 72) rotate(3)">
    <rect width="170" height="100" rx="16" fill="#070a0f" stroke="#ff7a00" stroke-width="7" filter="url(#glow)"/>
    <text x="29" y="43" font-family="Orbitron, Arial Black, sans-serif" font-size="35" fill="#4fdcff" filter="url(#glow)">GAME</text>
    <text x="37" y="80" font-family="Orbitron, Arial Black, sans-serif" font-size="35" fill="#4fdcff" filter="url(#glow)">ON.</text>
  </g>
  <g transform="translate(1143 207)">
    <rect width="190" height="34" rx="6" fill="#b8b2a5" stroke="#222"/><text x="26" y="24" font-family="Arial Black" font-size="18" fill="#114b92">NIGHT MISSIONS</text>
    <rect y="36" width="190" height="34" rx="6" fill="#b8b2a5" stroke="#222"/><text x="36" y="60" font-family="Arial Black" font-size="18" fill="#d2431f">OUTRUNNERS</text>
    <rect y="72" width="190" height="34" rx="6" fill="#b8b2a5" stroke="#222"/><text x="45" y="96" font-family="Arial Black" font-size="18" fill="#1d8b19">MEGA TANK</text>
    <rect y="108" width="190" height="34" rx="6" fill="#b8b2a5" stroke="#222"/><text x="58" y="132" font-family="Arial Black" font-size="18" fill="#144ca5">KART KINGS</text>
    <rect y="144" width="190" height="34" rx="6" fill="#b8b2a5" stroke="#222"/><text x="35" y="168" font-family="Arial Black" font-size="18" fill="#c53922">SPACE BLASTERS</text>
  </g>
</svg>